<svg xmlns="http://www.w3.org/2000/svg" xmlns:xlink="http://www.w3.org/1999/xlink" width="168px" height="46px" viewBox="0 0 168 46" version="1.1">
    <!-- Generator: Sketch 48.2 (47327) - http://www.bohemiancoding.com/sketch -->
    <title>thg-logo 2.0</title>
    <desc fill="#000000">Created with Sketch.</desc>
    <defs fill="#000000"/>
    <g id="Toolkit" stroke="none" stroke-width="1" fill="none" fill-rule="evenodd" transform="translate(-571.000000, -915.000000)">
        <g id="section-brand" transform="translate(90.000000, 686.000000)" fill="#ffffff">
            <g id="branding/thg-logo-2.0" transform="translate(481.000000, 229.000000)">
                <g id="thg-logo-2.0">
                    <path d="M6.86491603,32.9609304 L8.84500763,32.9609304 C9.57129771,32.9609304 10.4514809,33.0664839 10.7370382,33.8020732 L10.8032977,33.8020732 L11.5069313,31.2991804 L11.4415267,31.2991804 C11.1551145,31.4248589 10.8032977,31.4462161 10.4292519,31.4462161 L2.22247328,31.4462161 L1.67273282,31.4462161 C1.38632061,31.4039125 1.10033588,31.4039125 0.836152672,31.2991804 L0.770320611,31.2991804 L0,33.8020732 L0.066259542,33.8020732 C0.748091603,33.1921625 1.73856489,32.9609304 2.68458015,32.9609304 L4.62064122,32.9609304 L4.62064122,42.3453411 C4.62064122,43.2920375 4.75273282,44.8276982 3.65196947,45.2269125 L3.65196947,45.2905732 L8.00885496,45.2905732 L8.00885496,45.2269125 C6.8431145,44.5755196 6.86491603,43.7549125 6.86491603,42.5552161 L6.86491603,32.9609304 Z" id="Fill-1" fill="#000000"/>
                    <path d="M23.0361344,38.5368286 L23.0361344,42.3449714 C23.0361344,43.2920786 23.1900275,44.8273286 22.0678901,45.2269536 L22.0678901,45.2902036 L26.270455,45.2902036 L26.270455,45.2269536 C25.1483176,44.8273286 25.2804092,43.2920786 25.2804092,42.3449714 L25.2804092,34.3919 C25.2804092,33.4452036 25.1483176,31.9095429 26.270455,31.5099179 L26.270455,31.4458464 L22.0678901,31.4458464 L22.0678901,31.5099179 C23.1900275,31.9095429 23.0361344,33.4452036 23.0361344,34.4128464 L23.0361344,37.0221143 L15.0935389,37.0221143 L15.0935389,34.4128464 C15.0935389,33.4452036 14.9614473,31.9095429 16.0617832,31.5099179 L16.0617832,31.4458464 L11.8814473,31.4458464 L11.8814473,31.5099179 C13.0035847,31.9095429 12.8492641,33.4452036 12.8492641,34.3919 L12.8492641,42.3449714 C12.8492641,43.2920786 12.9813557,44.8273286 11.8814473,45.2269536 L11.8814473,45.2902036 L16.0617832,45.2902036 L16.0617832,45.2269536 C14.9614473,44.8273286 15.0935389,43.2920786 15.0935389,42.3449714 L15.0935389,38.5368286 L23.0361344,38.5368286 Z" id="Fill-3" fill="#000000"/>
                    <path d="M30.4940947,38.5368286 L32.1223695,38.5368286 C32.8042015,38.5368286 33.7279878,38.5158821 34.0802321,39.1262036 L34.1464916,39.1262036 L34.1464916,36.8956143 L34.0802321,36.8956143 C33.8164763,37.0221143 33.4642321,37.0221143 33.1124153,37.0221143 L30.4940947,37.0221143 L30.4940947,33.1080071 C31.1981557,32.9819179 31.9680489,32.9609714 32.7383695,32.9609714 C33.7506443,32.9609714 34.652629,33.0451679 35.3344611,33.8021143 L35.4007206,33.8021143 L35.4007206,31.3407036 L35.3344611,31.3407036 C35.0484763,31.48815 34.6740031,31.4458464 34.3003847,31.4458464 L27.259774,31.4458464 L27.259774,31.5099179 C28.3823389,31.9095429 28.2498198,33.4452036 28.2498198,34.4128464 L28.2498198,42.3449714 C28.2498198,43.2920786 28.3823389,44.8486857 27.259774,45.2269536 L27.259774,45.2902036 L36.4343695,45.2902036 L37.4248427,42.5343107 L37.3585832,42.5343107 C36.2586748,43.4600607 34.7406901,43.9019893 33.2881099,43.7759 L30.4940947,43.5229 L30.4940947,38.5368286 Z" id="Fill-5" fill="#000000"/>
                    <path d="M53.4982962,38.5368286 L53.4982962,42.3449714 C53.4982962,43.2920786 53.6521893,44.8273286 52.5300519,45.2269536 L52.5300519,45.2902036 L56.7321893,45.2902036 L56.7321893,45.2269536 C55.6104794,44.8273286 55.7421435,43.2920786 55.7421435,42.3449714 L55.7421435,34.3919 C55.7421435,33.4452036 55.6104794,31.9095429 56.7321893,31.5099179 L56.7321893,31.4458464 L52.5300519,31.4458464 L52.5300519,31.5099179 C53.6521893,31.9095429 53.4982962,33.4452036 53.4982962,34.4128464 L53.4982962,37.0221143 L45.5557008,37.0221143 L45.5557008,34.4128464 C45.5557008,33.4452036 45.4240366,31.9095429 46.523945,31.5099179 L46.523945,31.4458464 L42.3427542,31.4458464 L42.3427542,31.5099179 C43.4653191,31.9095429 43.3118534,33.4452036 43.3118534,34.3919 L43.3118534,42.3449714 C43.3118534,43.2920786 43.4435176,44.8273286 42.3427542,45.2269536 L42.3427542,45.2902036 L46.523945,45.2902036 L46.523945,45.2269536 C45.4240366,44.8273286 45.5557008,43.2920786 45.5557008,42.3449714 L45.5557008,38.5368286 L53.4982962,38.5368286 Z" id="Fill-7" fill="#000000"/>
                    <path d="M65.554626,31.0882375 C60.9344122,30.9835054 57.3038168,34.3287732 57.3038168,38.3262554 C57.3038168,42.6395768 60.9780153,45.6271125 65.3344733,45.6271125 C69.7131603,45.6271125 73.4318168,42.5130768 73.4318168,38.2211125 C73.4318168,34.4339161 70.1756947,31.0668804 65.554626,31.0882375 M65.4003053,32.6033625 C68.8770076,32.6033625 70.9233588,35.5695411 70.9233588,38.6420946 C70.9233588,41.7766661 68.7889466,44.1119875 65.4447634,44.1119875 C61.9902901,44.1119875 59.8118473,41.0821482 59.8118473,38.1369161 C59.8118473,34.9596304 61.9902901,32.6033625 65.4003053,32.6033625" id="Fill-9" fill="#000000"/>
                    <path d="M84.4297038,45.2903679 L87.6640244,45.2903679 L87.6640244,45.2271179 C86.5414595,44.8274929 86.6739786,43.2922429 86.6739786,42.3451357 L86.6739786,34.4130107 C86.6739786,33.4449571 86.5414595,31.9097071 87.6640244,31.5096714 L87.6422229,31.4460107 L83.4614595,31.4460107 L83.4614595,31.5096714 C84.5613679,31.9097071 84.4297038,33.4449571 84.4297038,34.3920643 L84.4297038,40.7248679 C84.4297038,41.482225 84.4523603,42.00835 83.9675969,42.6396179 C83.2413069,43.6286179 81.9875053,44.1120286 80.7555053,44.1120286 C78.489429,44.1120286 77.257429,42.8080107 77.257429,40.010225 L77.257429,34.3920643 C77.257429,33.4449571 77.1253374,31.9097071 78.2252458,31.5096714 L78.2252458,31.4460107 L74.0444824,31.4460107 L74.0444824,31.5096714 C75.1670473,31.9097071 75.0131542,33.4449571 75.0131542,34.3920643 L75.0131542,40.010225 C75.0131542,41.5245286 74.9686962,42.9341 76.1352916,44.1539214 C77.1253374,45.185225 78.6651237,45.6271536 80.1172763,45.6271536 C81.6574901,45.6271536 83.4614595,45.1223857 84.4297038,43.9021536 L84.4297038,45.2903679 Z" id="Fill-11" fill="#000000"/>
                    <path d="M89.1144672,31.4460107 L89.1144672,31.5096714 C90.2366046,31.9097071 90.0831389,33.4449571 90.0831389,34.4130107 L90.0831389,42.3451357 C90.0831389,43.2922429 90.2366046,44.84885 89.1144672,45.2271179 L89.1144672,45.2903679 L93.3174595,45.2903679 L93.3174595,45.2271179 C92.1953221,44.84885 92.3269863,43.3131893 92.3269863,42.3451357 L92.3269863,32.9188321 C92.8331237,32.8346357 93.3174595,32.7717964 93.8235969,32.75085 C95.2971237,32.6871893 96.6612153,33.5714571 96.6612153,35.0861714 C96.6612153,37.0637607 94.6148641,37.842475 92.8549252,38.0946536 L94.8786198,41.0612429 L97.5636275,44.2381179 C98.223658,45.0168321 98.9495206,45.2903679 100.115689,45.2903679 L102.139383,45.2903679 C100.885154,44.5334214 99.4992611,43.4392786 98.5759023,42.3451357 L95.4074137,38.5369929 C97.2109557,38.1369571 98.9054901,36.6850821 98.9054901,34.8339929 C98.9054901,32.9188321 97.2990168,31.4460107 94.3511084,31.4460107 L89.1144672,31.4460107 Z" id="Fill-13" fill="#000000"/>
                    <path d="M117.531945,31.466875 C116.388006,31.2360536 115.243212,31.1099643 114.077899,31.1099643 C108.753197,31.1099643 104.99051,33.9286964 104.99051,38.4527143 C104.99051,42.6818393 108.313319,45.6274821 113.945808,45.6274821 C115.727548,45.6274821 117.444311,45.3112321 119.20425,44.9958036 C119.072586,44.7013214 119.09396,44.3645357 119.09396,44.0491071 L119.09396,39.2104821 C119.09396,38.8938214 119.09396,38.5578571 119.20425,38.3052679 L119.20425,38.2424286 L115.837838,38.2424286 L115.837838,38.3052679 C116.828311,38.6839464 116.850113,39.7144286 116.850113,40.6824821 L116.850113,43.7127321 C115.85964,43.9854464 114.804189,44.1119464 113.791487,44.1119464 C110.31564,44.1119464 107.49854,41.5453929 107.49854,38.1578214 C107.49854,34.7710714 110.116861,32.6242679 113.549533,32.6242679 C114.891823,32.6242679 116.563701,32.91875 117.466113,33.8872143 L117.531945,33.8872143 L117.531945,31.466875 Z" id="Fill-15" fill="#000000"/>
                    <path d="M123.448623,43.5865607 L123.448623,34.4128464 C123.448623,33.4657393 123.295157,31.9095429 124.417295,31.5099179 L124.417295,31.4458464 L120.215157,31.4458464 L120.215157,31.5099179 C121.337295,31.9095429 121.204348,33.4452036 121.204348,34.4128464 L121.204348,42.3453821 C121.204348,43.2920786 121.337295,44.8486857 120.215157,45.2269536 L120.215157,45.2902036 L129.258089,45.2902036 L130.402027,42.4924179 L130.335768,42.4924179 C129.235432,43.3758643 127.937173,43.8600964 126.440989,43.7759 L123.448623,43.5865607 Z" id="Fill-17" fill="#000000"/>
                    <path d="M140.890614,40.0934768 L142.079438,43.0604768 C142.673209,44.5337089 142.849331,44.7641196 141.771224,45.2269946 L141.771224,45.2902446 L146.281576,45.2902446 L146.281576,45.2269946 C145.027347,44.6170839 144.631072,43.4391554 144.124934,42.2398696 L139.548751,31.4458875 L136.072476,31.4458875 L136.072476,31.5099589 C137.128354,31.8245661 136.710705,32.7084232 136.402919,33.4657804 L132.727866,42.2398696 C132.243957,43.4391554 131.869911,44.6170839 130.593881,45.2269946 L130.593881,45.2902446 L134.642553,45.2902446 L134.642553,45.2269946 C133.586247,44.8487268 133.74014,44.2384054 134.202247,43.0604768 L135.346614,40.0934768 L140.890614,40.0934768 Z M140.252812,38.5368696 L135.918583,38.5368696 L138.097026,33.2345482 L140.252812,38.5368696 Z" id="Fill-19" fill="#000000"/>
                    <path d="M155.301808,31.5723464 C154.245502,31.2565071 153.123365,31.1098821 152.023884,31.1098821 C149.338876,31.1098821 146.500831,32.1194179 146.500831,34.7709893 C146.500831,39.2309357 154.06938,38.6419714 154.06938,41.9244 C154.06938,43.3964 152.17735,44.1118643 150.923121,44.1118643 C149.206785,44.1118643 147.402815,43.439525 146.104983,42.3659179 L146.743212,44.9961321 C147.997014,45.43765 149.338876,45.6274 150.681166,45.6274 C154.113838,45.6274 156.577838,43.5229 156.577838,41.271775 C156.577838,37.3794357 149.008861,37.4217393 149.008861,34.5393464 C149.008861,33.0870607 150.592678,32.6245964 151.847334,32.6245964 C153.079334,32.6245964 154.443426,33.1080071 155.301808,33.9499714 L155.301808,31.5723464 Z" id="Fill-21" fill="#000000"/>
                    <path d="M166.297344,31.5723464 C165.241038,31.2565071 164.118901,31.1098821 163.018565,31.1098821 C160.33484,31.1098821 157.496366,32.1194179 157.496366,34.7709893 C157.496366,39.2309357 165.064916,38.6419714 165.064916,41.9244 C165.064916,43.3964 163.172885,44.1118643 161.919084,44.1118643 C160.202748,44.1118643 158.398351,43.439525 157.100519,42.3659179 L157.738321,44.9961321 C158.99255,45.43765 160.33484,45.6274 161.676702,45.6274 C165.109374,45.6274 167.572947,43.5229 167.572947,41.271775 C167.572947,37.3794357 160.004397,37.4217393 160.004397,34.5393464 C160.004397,33.0870607 161.589069,32.6245964 162.84287,32.6245964 C164.075298,32.6245964 165.438962,33.1080071 166.297344,33.9499714 L166.297344,31.5723464 Z" id="Fill-23" fill="#000000"/>
                    <polygon id="Fill-25" points="77.6997863 22.5855893 78.8005496 22.5855893 78.8005496 2.99616071 77.6997863 2.99616071" fill="#000000"/>
                    <polygon id="Fill-27" points="91.729026 2.38555179 93.1709191 0.000123214286 76.2922626 0.000123214286 77.7016672 2.38555179" fill="#000000"/>
                    <polygon id="Fill-28" points="90.6272366 22.5855893 91.728 22.5855893 91.728 2.99616071 90.6272366 2.99616071" fill="#000000"/>
                    <path d="M89.9940947,2.9960375 L89.9940947,22.5854661 L85.1451786,22.5854661 L84.2825221,22.5854661 L79.4340336,22.5854661 L79.4340336,2.9960375 L84.3265527,2.9960375 L85.1015756,2.9960375 L89.9940947,2.9960375 Z M85.0943084,12.6486446 C85.1212397,12.5968946 86.7101863,11.9323589 87.8934534,9.9707875 C89.2896061,7.65887679 89.1711939,3.89837679 89.1711939,3.89837679 L84.9053618,3.89837679 L84.5227664,3.89837679 L80.2569344,3.89837679 C80.2569344,3.89837679 80.1385221,7.65887679 81.5351023,9.9707875 C82.717942,11.9323589 84.307316,12.5968946 84.3342473,12.6486446 C84.4129038,12.8026625 83.5322931,12.9373768 82.2224916,14.6139125 C80.1838351,17.2260554 80.3351634,21.7956625 80.3351634,21.7956625 L89.0929649,21.7956625 C89.0929649,21.7956625 89.2447206,17.2260554 87.2060641,14.6139125 C85.8954076,12.9373768 85.0152244,12.8026625 85.0943084,12.6486446 Z" id="Fill-29" fill="#000000"/>
                    <path d="M84.7056855,12.1243679 C84.995945,12.1243679 85.3575939,12.0549571 86.4626321,10.9464393 C87.5680977,9.83792143 88.0032733,8.45135 88.0579908,8.20861786 C88.1118534,7.96588571 88.122113,7.94863571 88.122113,7.94863571 L81.3102046,7.94863571 C81.3102046,7.94863571 81.3119145,7.96588571 81.3662046,8.20861786 C81.4204947,8.45135 81.8548153,9.83792143 82.9602809,10.9464393 C84.0653191,12.0549571 84.4282504,12.1243679 84.717655,12.1243679 L84.7056855,12.1243679 Z" id="Fill-30" fill="#000000"/>
                    <path d="M88.7571359,21.3823196 C88.7571359,21.3823196 87.970571,20.1793375 86.9873649,19.3332661 C86.3739298,18.8046768 85.4740824,18.1109804 84.7858382,18.1109804 L84.6426321,18.1109804 C83.9543878,18.1109804 83.0545405,18.8046768 82.4406779,19.3332661 C81.4574718,20.1793375 80.6709069,21.3823196 80.6709069,21.3823196 L88.7571359,21.3823196 Z" id="Fill-31" fill="#000000"/>
                    <polygon id="Fill-32" points="91.729026 23.1968143 93.1709191 25.5822429 76.2922626 25.5822429 77.7016672 23.1968143" fill="#000000"/>
                </g>
            </g>
        </g>
    </g>
</svg>